<?xml version="1.0" encoding="iso-8859-1"?>
<!DOCTYPE svg PUBLIC "-//W3C//DTD SVG 1.1//EN" "http://www.w3.org/Graphics/SVG/1.1/DTD/svg11.dtd">
<svg id="Layer_1" data-name="Layer 1" xmlns="http://www.w3.org/2000/svg" width="18" height="18" viewBox="0 0 16 23"><defs><style>.cls-1,.cls-2,.cls-3,.cls-4{fill:none;stroke-miterlimit:10;}.cls-1,.cls-4{stroke:#000;}.cls-2,.cls-3{stroke:#0071bc;}.cls-2,.cls-4{stroke-width:2px;}.cls-3,.cls-4{stroke-linecap:round;}.cls-3{stroke-width:3px;}</style></defs><title>anchorai</title><path class="cls-1" d="M11.75,14.5" transform="translate(-3.75 -0.5)"/><path class="cls-1" d="M11.75,14.5" transform="translate(-3.75 -0.5)"/><path class="cls-1" d="M11.75,18.5" transform="translate(-3.75 -0.5)"/><path class="cls-1" d="M11.75,21.5" transform="translate(-3.75 -0.5)"/><path class="cls-1" d="M11.75,18.5" transform="translate(-3.75 -0.5)"/><path class="cls-1" d="M11.75,21.5" transform="translate(-3.75 -0.5)"/><path class="cls-1" d="M11.75,21.5" transform="translate(-3.75 -0.5)"/><path class="cls-1" d="M11.75,18.5" transform="translate(-3.75 -0.5)"/><path class="cls-1" d="M11.75,18.5" transform="translate(-3.75 -0.5)"/><path class="cls-1" d="M11.75,21.5" transform="translate(-3.75 -0.5)"/><path class="cls-1" d="M11.75,21.5" transform="translate(-3.75 -0.5)"/><path class="cls-1" d="M11.75,18.5" transform="translate(-3.75 -0.5)"/><path class="cls-1" d="M11.75,18.5" transform="translate(-3.75 -0.5)"/><path class="cls-1" d="M11.75,21.5" transform="translate(-3.75 -0.5)"/><path class="cls-1" d="M11.75,21.5" transform="translate(-3.75 -0.5)"/><path class="cls-1" d="M11.75,19.5" transform="translate(-3.75 -0.5)"/><path class="cls-1" d="M11.75,19.5" transform="translate(-3.75 -0.5)"/><path class="cls-1" d="M23.5,21.5" transform="translate(-3.75 -0.5)"/><circle class="cls-2" cx="8" cy="3.5" r="2.5"/><line class="cls-3" x1="8" y1="21" x2="8" y2="7"/><path class="cls-4" d="M11.75,18" transform="translate(-3.75 -0.5)"/><path class="cls-4" d="M11.75,21" transform="translate(-3.75 -0.5)"/><path class="cls-4" d="M11.75,18" transform="translate(-3.75 -0.5)"/><path class="cls-3" d="M18.25,16c0,2.21-3.14,6-6.73,6s-6.27-3.79-6.27-6" transform="translate(-3.75 -0.5)"/><line class="cls-2" x1="4.5" y1="9" x2="11.5" y2="9"/></svg>